# xmcd CD database file
#
# Track frame offsets:
#	150
#	28350
#	46079
#	60664
#	78213
#	102542
#	131624
#	152776
#	175109
#	195557
#	208893
#	220896
#	237358
#	248222
#	269301
#
# Disc length: 3855 seconds
#
# Revision: 1
# Processed by: cddbd v1.5.2PL0 Copyright (c) Steve Scherf et al.
# Submitted via: CDex 1.70beta3
#
DISCID=d70f0d0f
DTITLE=→Pia-no-jaC← - First Best [Disc 1]
DYEAR=2011
DGENRE=Jazz
TTITLE0=組曲『　』
TTITLE1=うさぎDASH
TTITLE2=交響曲 第9番 ニ短調 作品125 「合唱」第4楽章
TTITLE3=小フーガ ト短調 BWV 578
TTITLE4=台風
TTITLE5=花火 ～HANABI～
TTITLE6=Time Limit
TTITLE7=美しく青きドナウ
TTITLE8=交響曲 第9番 ホ短調 作品95「新世界より」第4楽章 (First Best Ver.)
TTITLE9=残月
TTITLE10=The Last Resort
TTITLE11=輪舞曲 ～Rondo～
TTITLE12=熊蜂の飛行
TTITLE13=ジ・エンターテイナー
TTITLE14=Jack 2011
EXTD=YEAR: 2011
EXTT0=
EXTT1=
EXTT2=
EXTT3=
EXTT4=
EXTT5=
EXTT6=
EXTT7=
EXTT8=
EXTT9=
EXTT10=
EXTT11=
EXTT12=
EXTT13=
EXTT14=
PLAYORDER=
